<mxfile host="app.diagrams.net" agent="Mozilla/5.0 (Windows NT 10.0; Win64; x64) AppleWebKit/537.36 (KHTML, like Gecko) Chrome/135.0.0.0 Safari/537.36" version="26.2.14" pages="4">
  <diagram id="BuhFPf4bjEY3MvHpKumr" name="Page-2">
    <mxGraphModel dx="2066" dy="1103" grid="1" gridSize="10" guides="1" tooltips="1" connect="1" arrows="1" fold="1" page="1" pageScale="1" pageWidth="850" pageHeight="1100" math="0" shadow="0">
      <root>
        <mxCell id="0" />
        <mxCell id="1" parent="0" />
        <mxCell id="-UQGtxKa_-4kIm8BEKnz-9" style="edgeStyle=orthogonalEdgeStyle;rounded=0;orthogonalLoop=1;jettySize=auto;html=1;exitX=1;exitY=0.5;exitDx=0;exitDy=0;entryX=0;entryY=0.5;entryDx=0;entryDy=0;fontSize=16;fontStyle=1;strokeWidth=2;" parent="1" source="-UQGtxKa_-4kIm8BEKnz-1" target="-UQGtxKa_-4kIm8BEKnz-5" edge="1">
          <mxGeometry relative="1" as="geometry" />
        </mxCell>
        <mxCell id="-UQGtxKa_-4kIm8BEKnz-10" style="edgeStyle=orthogonalEdgeStyle;rounded=0;orthogonalLoop=1;jettySize=auto;html=1;exitX=0.5;exitY=1;exitDx=0;exitDy=0;entryX=0.5;entryY=0;entryDx=0;entryDy=0;fontSize=16;fontStyle=1;strokeWidth=2;" parent="1" source="-UQGtxKa_-4kIm8BEKnz-1" target="-UQGtxKa_-4kIm8BEKnz-6" edge="1">
          <mxGeometry relative="1" as="geometry" />
        </mxCell>
        <mxCell id="-UQGtxKa_-4kIm8BEKnz-1" value="Test Setup Already&amp;nbsp;&lt;span style=&quot;background-color: transparent; color: light-dark(rgb(0, 0, 0), rgb(255, 255, 255));&quot;&gt;Power On ?&lt;/span&gt;" style="rhombus;whiteSpace=wrap;html=1;fontSize=16;fontStyle=1;strokeWidth=2;" parent="1" vertex="1">
          <mxGeometry x="80" y="300" width="320" height="40" as="geometry" />
        </mxCell>
        <mxCell id="-UQGtxKa_-4kIm8BEKnz-14" style="edgeStyle=orthogonalEdgeStyle;rounded=0;orthogonalLoop=1;jettySize=auto;html=1;exitX=0.5;exitY=1;exitDx=0;exitDy=0;entryX=0.5;entryY=0;entryDx=0;entryDy=0;strokeWidth=2;" parent="1" target="-UQGtxKa_-4kIm8BEKnz-13" edge="1">
          <mxGeometry relative="1" as="geometry">
            <mxPoint x="240" y="840" as="sourcePoint" />
          </mxGeometry>
        </mxCell>
        <mxCell id="-UQGtxKa_-4kIm8BEKnz-2" value="FEMB Checkout Implement [120 s]&lt;div&gt;&lt;br&gt;&lt;/div&gt;&lt;div&gt;Register Scan&lt;/div&gt;&lt;div&gt;Power Scan&lt;/div&gt;&lt;div&gt;&lt;br&gt;&lt;/div&gt;&lt;div&gt;Pedestal and RMS&lt;/div&gt;&lt;div&gt;Power Rail and Scan&lt;/div&gt;&lt;div&gt;&lt;br&gt;&lt;/div&gt;&lt;div&gt;SE ON Pulse&lt;/div&gt;&lt;div&gt;Power Rail and Scan&lt;/div&gt;&lt;div&gt;&lt;br&gt;&lt;/div&gt;&lt;div&gt;DIFF Pulse&lt;/div&gt;&lt;div&gt;Power Rail and Scan&lt;/div&gt;&lt;div&gt;&lt;br&gt;&lt;/div&gt;&lt;div&gt;Monitoring Path&lt;/div&gt;&lt;div&gt;&lt;br&gt;&lt;/div&gt;&lt;div&gt;Backup Power Rail&lt;/div&gt;&lt;div&gt;&lt;br&gt;&lt;/div&gt;" style="rounded=0;whiteSpace=wrap;html=1;align=left;verticalAlign=top;fontSize=16;fontStyle=1;strokeWidth=2;" parent="1" vertex="1">
          <mxGeometry x="80" y="480" width="320" height="360" as="geometry" />
        </mxCell>
        <mxCell id="-UQGtxKa_-4kIm8BEKnz-7" style="edgeStyle=orthogonalEdgeStyle;rounded=0;orthogonalLoop=1;jettySize=auto;html=1;exitX=0.5;exitY=1;exitDx=0;exitDy=0;fontSize=16;fontStyle=1;strokeWidth=2;" parent="1" source="-UQGtxKa_-4kIm8BEKnz-3" target="-UQGtxKa_-4kIm8BEKnz-4" edge="1">
          <mxGeometry relative="1" as="geometry" />
        </mxCell>
        <mxCell id="-UQGtxKa_-4kIm8BEKnz-3" value="Begin" style="rounded=0;whiteSpace=wrap;html=1;fontSize=16;fontStyle=1;strokeWidth=2;" parent="1" vertex="1">
          <mxGeometry x="80" y="120" width="320" height="40" as="geometry" />
        </mxCell>
        <mxCell id="-UQGtxKa_-4kIm8BEKnz-8" style="edgeStyle=orthogonalEdgeStyle;rounded=0;orthogonalLoop=1;jettySize=auto;html=1;exitX=0.5;exitY=1;exitDx=0;exitDy=0;entryX=0.5;entryY=0;entryDx=0;entryDy=0;fontSize=16;fontStyle=1;strokeWidth=2;" parent="1" source="-UQGtxKa_-4kIm8BEKnz-4" target="-UQGtxKa_-4kIm8BEKnz-1" edge="1">
          <mxGeometry relative="1" as="geometry" />
        </mxCell>
        <mxCell id="-UQGtxKa_-4kIm8BEKnz-4" value="Scan and Install 4 FEMB Boards" style="rounded=0;whiteSpace=wrap;html=1;fontSize=16;fontStyle=1;strokeWidth=2;" parent="1" vertex="1">
          <mxGeometry x="80" y="200" width="320" height="40" as="geometry" />
        </mxCell>
        <mxCell id="-UQGtxKa_-4kIm8BEKnz-11" style="edgeStyle=orthogonalEdgeStyle;rounded=0;orthogonalLoop=1;jettySize=auto;html=1;exitX=0.5;exitY=1;exitDx=0;exitDy=0;entryX=1;entryY=0.5;entryDx=0;entryDy=0;fontSize=16;fontStyle=1;strokeWidth=2;" parent="1" source="-UQGtxKa_-4kIm8BEKnz-5" target="-UQGtxKa_-4kIm8BEKnz-6" edge="1">
          <mxGeometry relative="1" as="geometry" />
        </mxCell>
        <mxCell id="-UQGtxKa_-4kIm8BEKnz-5" value="WIB Initial" style="rounded=0;whiteSpace=wrap;html=1;fontSize=16;fontStyle=1;strokeWidth=2;" parent="1" vertex="1">
          <mxGeometry x="480" y="300" width="320" height="40" as="geometry" />
        </mxCell>
        <mxCell id="-UQGtxKa_-4kIm8BEKnz-12" style="edgeStyle=orthogonalEdgeStyle;rounded=0;orthogonalLoop=1;jettySize=auto;html=1;exitX=0.5;exitY=1;exitDx=0;exitDy=0;entryX=0.5;entryY=0;entryDx=0;entryDy=0;fontSize=16;fontStyle=1;strokeWidth=2;" parent="1" source="-UQGtxKa_-4kIm8BEKnz-6" target="-UQGtxKa_-4kIm8BEKnz-2" edge="1">
          <mxGeometry relative="1" as="geometry" />
        </mxCell>
        <mxCell id="-UQGtxKa_-4kIm8BEKnz-6" value="FEMB Initial" style="rounded=0;whiteSpace=wrap;html=1;fontSize=16;fontStyle=1;strokeWidth=2;" parent="1" vertex="1">
          <mxGeometry x="80" y="400" width="320" height="40" as="geometry" />
        </mxCell>
        <mxCell id="SSPQleuSUgxA6Hak7R8U-2" style="edgeStyle=orthogonalEdgeStyle;rounded=0;orthogonalLoop=1;jettySize=auto;html=1;exitX=0.5;exitY=1;exitDx=0;exitDy=0;entryX=0.5;entryY=0;entryDx=0;entryDy=0;strokeWidth=2;" parent="1" source="-UQGtxKa_-4kIm8BEKnz-13" target="SSPQleuSUgxA6Hak7R8U-1" edge="1">
          <mxGeometry relative="1" as="geometry" />
        </mxCell>
        <mxCell id="-UQGtxKa_-4kIm8BEKnz-13" value="Assembly&lt;span style=&quot;background-color: transparent; color: light-dark(rgb(0, 0, 0), rgb(255, 255, 255));&quot;&gt;&amp;nbsp;into CE Box&lt;/span&gt;" style="rounded=0;whiteSpace=wrap;html=1;fontSize=16;fontStyle=1;strokeWidth=2;align=left;" parent="1" vertex="1">
          <mxGeometry x="80" y="880" width="320" height="40" as="geometry" />
        </mxCell>
        <mxCell id="SSPQleuSUgxA6Hak7R8U-1" value="Package Boards with ESD Bag" style="rounded=0;whiteSpace=wrap;html=1;fontSize=16;fontStyle=1;strokeWidth=2;" parent="1" vertex="1">
          <mxGeometry x="80" y="960" width="320" height="40" as="geometry" />
        </mxCell>
      </root>
    </mxGraphModel>
  </diagram>
  <diagram id="0fZTfF0rmRUbfpPcPDRW" name="Page-3">
    <mxGraphModel dx="2066" dy="1103" grid="1" gridSize="10" guides="1" tooltips="1" connect="1" arrows="1" fold="1" page="1" pageScale="1" pageWidth="1100" pageHeight="850" math="0" shadow="0">
      <root>
        <mxCell id="0" />
        <mxCell id="1" parent="0" />
        <mxCell id="x1TnxTCswKe7sEmCzJ45-2" style="edgeStyle=orthogonalEdgeStyle;rounded=0;orthogonalLoop=1;jettySize=auto;html=1;exitX=0.5;exitY=1;exitDx=0;exitDy=0;fontSize=16;fontStyle=1;strokeWidth=2;align=left;" parent="1" source="x1TnxTCswKe7sEmCzJ45-17" edge="1">
          <mxGeometry relative="1" as="geometry">
            <mxPoint x="240" y="500" as="sourcePoint" />
            <mxPoint x="240" y="520" as="targetPoint" />
          </mxGeometry>
        </mxCell>
        <mxCell id="x1TnxTCswKe7sEmCzJ45-6" style="edgeStyle=orthogonalEdgeStyle;rounded=0;orthogonalLoop=1;jettySize=auto;html=1;exitX=0.5;exitY=1;exitDx=0;exitDy=0;fontSize=16;fontStyle=1;strokeWidth=2;align=left;" parent="1" source="x1TnxTCswKe7sEmCzJ45-7" target="x1TnxTCswKe7sEmCzJ45-9" edge="1">
          <mxGeometry relative="1" as="geometry" />
        </mxCell>
        <mxCell id="x1TnxTCswKe7sEmCzJ45-7" value="Pick up WIB with ESD straps" style="rounded=0;whiteSpace=wrap;html=1;fontSize=16;fontStyle=1;strokeWidth=2;align=left;" parent="1" vertex="1">
          <mxGeometry x="80" y="200" width="320" height="40" as="geometry" />
        </mxCell>
        <mxCell id="x1TnxTCswKe7sEmCzJ45-8" style="edgeStyle=orthogonalEdgeStyle;rounded=0;orthogonalLoop=1;jettySize=auto;html=1;entryX=0.5;entryY=0;entryDx=0;entryDy=0;fontSize=16;fontStyle=1;strokeWidth=2;align=left;" parent="1" target="x1TnxTCswKe7sEmCzJ45-17" edge="1">
          <mxGeometry relative="1" as="geometry">
            <mxPoint x="240" y="400" as="sourcePoint" />
            <mxPoint x="240" y="460" as="targetPoint" />
          </mxGeometry>
        </mxCell>
        <mxCell id="x1TnxTCswKe7sEmCzJ45-16" style="edgeStyle=orthogonalEdgeStyle;rounded=0;orthogonalLoop=1;jettySize=auto;html=1;exitX=0.5;exitY=1;exitDx=0;exitDy=0;strokeWidth=2;align=left;" parent="1" source="x1TnxTCswKe7sEmCzJ45-9" target="x1TnxTCswKe7sEmCzJ45-15" edge="1">
          <mxGeometry relative="1" as="geometry" />
        </mxCell>
        <mxCell id="x1TnxTCswKe7sEmCzJ45-9" value="Scan QR ID of the WIB Boards and Visual Inspection" style="rounded=0;whiteSpace=wrap;html=1;fontSize=16;fontStyle=1;strokeWidth=2;align=left;" parent="1" vertex="1">
          <mxGeometry x="80" y="280" width="320" height="40" as="geometry" />
        </mxCell>
        <mxCell id="DQpT67zchpJin-VCCsD6-4" style="edgeStyle=orthogonalEdgeStyle;rounded=0;orthogonalLoop=1;jettySize=auto;html=1;exitX=0.5;exitY=1;exitDx=0;exitDy=0;entryX=0.5;entryY=0;entryDx=0;entryDy=0;strokeWidth=2;" edge="1" parent="1" source="x1TnxTCswKe7sEmCzJ45-14" target="DQpT67zchpJin-VCCsD6-3">
          <mxGeometry relative="1" as="geometry" />
        </mxCell>
        <mxCell id="x1TnxTCswKe7sEmCzJ45-14" value="Package Boards with ESD Bag" style="rounded=0;whiteSpace=wrap;html=1;fontSize=16;fontStyle=1;strokeWidth=2;align=left;" parent="1" vertex="1">
          <mxGeometry x="80" y="600" width="320" height="40" as="geometry" />
        </mxCell>
        <mxCell id="x1TnxTCswKe7sEmCzJ45-15" value="Install WIB Board into the Test Setup" style="rounded=0;whiteSpace=wrap;html=1;fontSize=16;fontStyle=1;strokeWidth=2;align=left;" parent="1" vertex="1">
          <mxGeometry x="80" y="360" width="320" height="40" as="geometry" />
        </mxCell>
        <mxCell id="x1TnxTCswKe7sEmCzJ45-17" value="LT Power Program" style="rounded=0;whiteSpace=wrap;html=1;fontSize=16;fontStyle=1;strokeWidth=2;align=left;" parent="1" vertex="1">
          <mxGeometry x="80" y="440" width="320" height="40" as="geometry" />
        </mxCell>
        <mxCell id="DQpT67zchpJin-VCCsD6-2" style="edgeStyle=orthogonalEdgeStyle;rounded=0;orthogonalLoop=1;jettySize=auto;html=1;exitX=0.5;exitY=1;exitDx=0;exitDy=0;entryX=0.5;entryY=0;entryDx=0;entryDy=0;strokeWidth=2;" edge="1" parent="1" source="bF5WbzLpi_rxBWL8xg7a-1" target="x1TnxTCswKe7sEmCzJ45-7">
          <mxGeometry relative="1" as="geometry" />
        </mxCell>
        <mxCell id="bF5WbzLpi_rxBWL8xg7a-1" value="Receive WIB and Take Pictures" style="rounded=0;whiteSpace=wrap;html=1;fontSize=16;fontStyle=1;strokeWidth=2;align=left;" parent="1" vertex="1">
          <mxGeometry x="80" y="120" width="320" height="40" as="geometry" />
        </mxCell>
        <mxCell id="DQpT67zchpJin-VCCsD6-1" style="edgeStyle=orthogonalEdgeStyle;rounded=0;orthogonalLoop=1;jettySize=auto;html=1;exitX=0.5;exitY=1;exitDx=0;exitDy=0;entryX=0.5;entryY=0;entryDx=0;entryDy=0;strokeWidth=2;" edge="1" parent="1" source="DgGZCi7DKrUPASjJVyRT-1" target="x1TnxTCswKe7sEmCzJ45-14">
          <mxGeometry relative="1" as="geometry" />
        </mxCell>
        <mxCell id="DgGZCi7DKrUPASjJVyRT-1" value="Assembly the Front Panel" style="rounded=0;whiteSpace=wrap;html=1;fontSize=16;fontStyle=1;strokeWidth=2;align=left;" parent="1" vertex="1">
          <mxGeometry x="80" y="520" width="320" height="40" as="geometry" />
        </mxCell>
        <mxCell id="DQpT67zchpJin-VCCsD6-3" value="General Traveler of the WIB board" style="rounded=0;whiteSpace=wrap;html=1;fontSize=16;fontStyle=1;strokeWidth=2;align=left;" vertex="1" parent="1">
          <mxGeometry x="80" y="680" width="320" height="40" as="geometry" />
        </mxCell>
      </root>
    </mxGraphModel>
  </diagram>
  <diagram id="7EpxMGwbW-r8cJBObiBW" name="Page-4">
    <mxGraphModel dx="2431" dy="1298" grid="1" gridSize="10" guides="1" tooltips="1" connect="1" arrows="1" fold="1" page="1" pageScale="1" pageWidth="1100" pageHeight="850" math="0" shadow="0">
      <root>
        <mxCell id="0" />
        <mxCell id="1" parent="0" />
        <mxCell id="SyzLddu1tI-VLxxekaj_-10" style="edgeStyle=orthogonalEdgeStyle;rounded=0;orthogonalLoop=1;jettySize=auto;html=1;exitX=0.5;exitY=1;exitDx=0;exitDy=0;entryX=0.5;entryY=0;entryDx=0;entryDy=0;strokeWidth=2;" parent="1" source="Fo1HgNcVpfEpbb-faRC2-2" target="SyzLddu1tI-VLxxekaj_-4" edge="1">
          <mxGeometry relative="1" as="geometry" />
        </mxCell>
        <mxCell id="Fo1HgNcVpfEpbb-faRC2-2" value="Install WIB and Test Widgets" style="rounded=0;whiteSpace=wrap;html=1;fontSize=16;fontStyle=1;strokeWidth=2;align=left;" parent="1" vertex="1">
          <mxGeometry x="80" y="240" width="320" height="40" as="geometry" />
        </mxCell>
        <mxCell id="Fo1HgNcVpfEpbb-faRC2-3" style="edgeStyle=orthogonalEdgeStyle;rounded=0;orthogonalLoop=1;jettySize=auto;html=1;exitX=0.5;exitY=1;exitDx=0;exitDy=0;strokeWidth=2;align=left;" parent="1" target="Fo1HgNcVpfEpbb-faRC2-5" edge="1">
          <mxGeometry relative="1" as="geometry">
            <mxPoint x="240" y="520" as="sourcePoint" />
          </mxGeometry>
        </mxCell>
        <mxCell id="Fo1HgNcVpfEpbb-faRC2-4" value="&lt;div style=&quot;text-align: center;&quot;&gt;WIB QC Detail&lt;/div&gt;&lt;div&gt;&lt;br&gt;&lt;/div&gt;&lt;div&gt;&lt;div&gt;SD card boot Test&lt;/div&gt;&lt;div&gt;&lt;br&gt;&lt;/div&gt;&lt;div&gt;&lt;span style=&quot;background-color: transparent; color: light-dark(rgb(0, 0, 0), rgb(255, 255, 255));&quot;&gt;UART Connection&lt;/span&gt;&lt;/div&gt;&lt;div&gt;&lt;br&gt;&lt;/div&gt;&lt;div&gt;TCP/IP Connection&lt;/div&gt;&lt;div&gt;&lt;br&gt;&lt;/div&gt;&lt;div&gt;UDP Connection&lt;/div&gt;&lt;/div&gt;&lt;div&gt;&lt;br&gt;&lt;/div&gt;&lt;div&gt;&lt;span style=&quot;background-color: transparent; color: light-dark(rgb(0, 0, 0), rgb(255, 255, 255));&quot;&gt;WIB Power Rail Measurement&lt;/span&gt;&lt;/div&gt;&lt;div&gt;&lt;span style=&quot;background-color: transparent; color: light-dark(rgb(0, 0, 0), rgb(255, 255, 255));&quot;&gt;&lt;br&gt;&lt;/span&gt;&lt;/div&gt;&lt;div&gt;WIB-FEMB Power Rail Measurement&lt;span style=&quot;background-color: transparent; color: light-dark(rgb(0, 0, 0), rgb(255, 255, 255));&quot;&gt;&lt;/span&gt;&lt;/div&gt;&lt;div&gt;&lt;br&gt;&lt;/div&gt;&lt;div&gt;Temperature Measurement&lt;/div&gt;&lt;div&gt;&lt;br&gt;&lt;/div&gt;&lt;div&gt;WIB-FEMB Communication&lt;/div&gt;&lt;div&gt;&lt;br&gt;&lt;/div&gt;&lt;div&gt;Calibration Path&lt;/div&gt;&lt;div&gt;&lt;br&gt;&lt;/div&gt;&lt;div&gt;Timing Test&lt;/div&gt;&lt;div&gt;&lt;br&gt;&lt;/div&gt;&lt;div&gt;IBERT&lt;/div&gt;&lt;div&gt;&lt;br&gt;&lt;/div&gt;&lt;div&gt;I2C Devices&lt;/div&gt;&lt;div&gt;&lt;br&gt;&lt;/div&gt;&lt;div&gt;PTB Interface Test Boards&lt;/div&gt;&lt;div&gt;&lt;br&gt;&lt;/div&gt;&lt;div&gt;Generate Reception Checkout Report&lt;/div&gt;" style="rounded=0;whiteSpace=wrap;html=1;fontSize=16;fontStyle=1;strokeWidth=2;align=left;verticalAlign=top;strokeColor=#EA6B66;" parent="1" vertex="1">
          <mxGeometry x="520" y="80" width="320" height="600" as="geometry" />
        </mxCell>
        <mxCell id="Fo1HgNcVpfEpbb-faRC2-7" style="edgeStyle=orthogonalEdgeStyle;rounded=0;orthogonalLoop=1;jettySize=auto;html=1;exitX=0.5;exitY=1;exitDx=0;exitDy=0;entryX=0.5;entryY=0;entryDx=0;entryDy=0;fontSize=11;strokeWidth=2;align=left;" parent="1" source="Fo1HgNcVpfEpbb-faRC2-5" target="Fo1HgNcVpfEpbb-faRC2-6" edge="1">
          <mxGeometry relative="1" as="geometry" />
        </mxCell>
        <mxCell id="Fo1HgNcVpfEpbb-faRC2-5" value="Remove Test Widgets" style="rounded=0;whiteSpace=wrap;html=1;fontSize=16;fontStyle=1;strokeWidth=2;align=left;" parent="1" vertex="1">
          <mxGeometry x="80" y="560" width="320" height="40" as="geometry" />
        </mxCell>
        <mxCell id="Fo1HgNcVpfEpbb-faRC2-6" value="Package the WIB into Foam Box" style="rounded=0;whiteSpace=wrap;html=1;fontSize=16;fontStyle=1;strokeWidth=2;align=left;" parent="1" vertex="1">
          <mxGeometry x="80" y="640" width="320" height="40" as="geometry" />
        </mxCell>
        <mxCell id="YqLNJwpjTzSnRvb3DgC4-3" style="edgeStyle=orthogonalEdgeStyle;rounded=0;orthogonalLoop=1;jettySize=auto;html=1;exitX=0.5;exitY=1;exitDx=0;exitDy=0;entryX=0.5;entryY=0;entryDx=0;entryDy=0;strokeWidth=2;align=left;" parent="1" source="YqLNJwpjTzSnRvb3DgC4-1" target="YqLNJwpjTzSnRvb3DgC4-2" edge="1">
          <mxGeometry relative="1" as="geometry" />
        </mxCell>
        <mxCell id="YqLNJwpjTzSnRvb3DgC4-1" value="Pick up WIB with ESD straps" style="rounded=0;whiteSpace=wrap;html=1;fontSize=16;fontStyle=1;strokeWidth=2;align=left;" parent="1" vertex="1">
          <mxGeometry x="80" y="80" width="320" height="40" as="geometry" />
        </mxCell>
        <mxCell id="YqLNJwpjTzSnRvb3DgC4-4" style="edgeStyle=orthogonalEdgeStyle;rounded=0;orthogonalLoop=1;jettySize=auto;html=1;exitX=0.5;exitY=1;exitDx=0;exitDy=0;entryX=0.5;entryY=0;entryDx=0;entryDy=0;strokeWidth=2;align=left;" parent="1" source="YqLNJwpjTzSnRvb3DgC4-2" target="Fo1HgNcVpfEpbb-faRC2-2" edge="1">
          <mxGeometry relative="1" as="geometry" />
        </mxCell>
        <mxCell id="YqLNJwpjTzSnRvb3DgC4-2" value="Scan QR ID of the WIB Boards" style="rounded=0;whiteSpace=wrap;html=1;fontSize=16;fontStyle=1;strokeWidth=2;align=left;" parent="1" vertex="1">
          <mxGeometry x="80" y="160" width="320" height="40" as="geometry" />
        </mxCell>
        <mxCell id="SyzLddu1tI-VLxxekaj_-3" style="edgeStyle=orthogonalEdgeStyle;rounded=0;orthogonalLoop=1;jettySize=auto;html=1;exitX=0.5;exitY=1;exitDx=0;exitDy=0;entryX=0.5;entryY=0;entryDx=0;entryDy=0;strokeWidth=2;align=left;" parent="1" source="SyzLddu1tI-VLxxekaj_-4" edge="1">
          <mxGeometry relative="1" as="geometry">
            <mxPoint x="240" y="400" as="targetPoint" />
          </mxGeometry>
        </mxCell>
        <mxCell id="SyzLddu1tI-VLxxekaj_-4" value="Insert Require Components" style="rounded=0;whiteSpace=wrap;html=1;fontSize=16;fontStyle=1;strokeWidth=2;align=left;" parent="1" vertex="1">
          <mxGeometry x="80" y="320" width="320" height="40" as="geometry" />
        </mxCell>
        <mxCell id="NRkFcZvn8jjBhuof7zXI-2" style="edgeStyle=orthogonalEdgeStyle;rounded=0;orthogonalLoop=1;jettySize=auto;html=1;exitX=0.5;exitY=1;exitDx=0;exitDy=0;entryX=0.5;entryY=0;entryDx=0;entryDy=0;strokeWidth=2;" edge="1" parent="1" source="SyzLddu1tI-VLxxekaj_-8" target="NRkFcZvn8jjBhuof7zXI-1">
          <mxGeometry relative="1" as="geometry" />
        </mxCell>
        <mxCell id="SyzLddu1tI-VLxxekaj_-8" value="Insert Test Widgets" style="rounded=0;whiteSpace=wrap;html=1;fontSize=16;fontStyle=1;strokeWidth=2;align=left;" parent="1" vertex="1">
          <mxGeometry x="80" y="400" width="320" height="40" as="geometry" />
        </mxCell>
        <mxCell id="NRkFcZvn8jjBhuof7zXI-3" style="edgeStyle=orthogonalEdgeStyle;rounded=0;orthogonalLoop=1;jettySize=auto;html=1;exitX=1;exitY=0.5;exitDx=0;exitDy=0;endArrow=none;startFill=0;strokeWidth=3;" edge="1" parent="1" source="NRkFcZvn8jjBhuof7zXI-1">
          <mxGeometry relative="1" as="geometry">
            <mxPoint x="520" y="500" as="targetPoint" />
            <Array as="points">
              <mxPoint x="520" y="500" />
            </Array>
          </mxGeometry>
        </mxCell>
        <mxCell id="NRkFcZvn8jjBhuof7zXI-1" value="&lt;span style=&quot;text-align: center;&quot;&gt;Implemented WIB QC Script&lt;/span&gt;" style="rounded=0;whiteSpace=wrap;html=1;fontSize=16;fontStyle=1;strokeWidth=2;align=left;fillColor=#EA6B66;strokeColor=#EA6B66;" vertex="1" parent="1">
          <mxGeometry x="80" y="480" width="320" height="40" as="geometry" />
        </mxCell>
      </root>
    </mxGraphModel>
  </diagram>
  <diagram id="d_oDO12JGm5uSraJSmss" name="Page-5">
    <mxGraphModel dx="2066" dy="1103" grid="1" gridSize="10" guides="1" tooltips="1" connect="1" arrows="1" fold="1" page="1" pageScale="1" pageWidth="1100" pageHeight="850" math="0" shadow="0">
      <root>
        <mxCell id="0" />
        <mxCell id="1" parent="0" />
        <mxCell id="jZaTBG413mGB9T1UnAkj-8" style="edgeStyle=orthogonalEdgeStyle;rounded=0;orthogonalLoop=1;jettySize=auto;html=1;strokeWidth=3;" edge="1" parent="1">
          <mxGeometry relative="1" as="geometry">
            <mxPoint x="300.0000000000002" y="780" as="targetPoint" />
            <mxPoint x="660" y="701" as="sourcePoint" />
            <Array as="points">
              <mxPoint x="660" y="701" />
              <mxPoint x="660" y="740" />
              <mxPoint x="300" y="740" />
            </Array>
          </mxGeometry>
        </mxCell>
        <mxCell id="jZaTBG413mGB9T1UnAkj-9" style="edgeStyle=orthogonalEdgeStyle;rounded=0;orthogonalLoop=1;jettySize=auto;html=1;strokeWidth=3;" edge="1" parent="1" target="jZaTBG413mGB9T1UnAkj-4">
          <mxGeometry relative="1" as="geometry">
            <mxPoint x="970" y="701" as="sourcePoint" />
            <Array as="points">
              <mxPoint x="970" y="701" />
            </Array>
          </mxGeometry>
        </mxCell>
        <mxCell id="pe2N6PO_nUNQrEvKNxLT-19" value="&lt;font&gt;WIB QC [SBU, BU]&lt;/font&gt;" style="rounded=0;whiteSpace=wrap;html=1;align=left;verticalAlign=top;fontStyle=1;fontSize=24;strokeWidth=2;" vertex="1" parent="1">
          <mxGeometry x="480" y="20" width="760" height="680" as="geometry" />
        </mxCell>
        <mxCell id="pe2N6PO_nUNQrEvKNxLT-21" style="edgeStyle=orthogonalEdgeStyle;rounded=0;orthogonalLoop=1;jettySize=auto;html=1;exitX=1;exitY=0.5;exitDx=0;exitDy=0;entryX=0;entryY=0.5;entryDx=0;entryDy=0;strokeWidth=3;endArrow=block;endFill=1;" edge="1" parent="1" source="pe2N6PO_nUNQrEvKNxLT-18" target="pe2N6PO_nUNQrEvKNxLT-19">
          <mxGeometry relative="1" as="geometry" />
        </mxCell>
        <mxCell id="jZaTBG413mGB9T1UnAkj-6" style="edgeStyle=orthogonalEdgeStyle;rounded=0;orthogonalLoop=1;jettySize=auto;html=1;exitX=0.5;exitY=1;exitDx=0;exitDy=0;strokeWidth=3;" edge="1" parent="1" source="pe2N6PO_nUNQrEvKNxLT-18">
          <mxGeometry relative="1" as="geometry">
            <mxPoint x="300" y="779" as="targetPoint" />
            <Array as="points">
              <mxPoint x="220" y="740" />
              <mxPoint x="300" y="740" />
            </Array>
          </mxGeometry>
        </mxCell>
        <mxCell id="pe2N6PO_nUNQrEvKNxLT-18" value="&lt;font&gt;Reception Checkout [BNL]&lt;/font&gt;" style="rounded=0;whiteSpace=wrap;html=1;align=left;verticalAlign=top;fontSize=24;fontStyle=1;strokeWidth=2;" vertex="1" parent="1">
          <mxGeometry x="40" y="20" width="360" height="680" as="geometry" />
        </mxCell>
        <mxCell id="rZi2FCJkjRqMSrU8-2pk-1" style="edgeStyle=orthogonalEdgeStyle;rounded=0;orthogonalLoop=1;jettySize=auto;html=1;exitX=0.5;exitY=1;exitDx=0;exitDy=0;fontSize=16;fontStyle=1;strokeWidth=2;align=left;" edge="1" parent="1" source="rZi2FCJkjRqMSrU8-2pk-10">
          <mxGeometry relative="1" as="geometry">
            <mxPoint x="220" y="460" as="sourcePoint" />
            <mxPoint x="220" y="480" as="targetPoint" />
          </mxGeometry>
        </mxCell>
        <mxCell id="rZi2FCJkjRqMSrU8-2pk-2" style="edgeStyle=orthogonalEdgeStyle;rounded=0;orthogonalLoop=1;jettySize=auto;html=1;exitX=0.5;exitY=1;exitDx=0;exitDy=0;fontSize=16;fontStyle=1;strokeWidth=2;align=left;" edge="1" parent="1" source="rZi2FCJkjRqMSrU8-2pk-3" target="rZi2FCJkjRqMSrU8-2pk-6">
          <mxGeometry relative="1" as="geometry" />
        </mxCell>
        <mxCell id="rZi2FCJkjRqMSrU8-2pk-3" value="Pick up WIB with ESD straps" style="rounded=0;whiteSpace=wrap;html=1;fontSize=16;fontStyle=1;strokeWidth=2;align=left;" vertex="1" parent="1">
          <mxGeometry x="60" y="160" width="320" height="40" as="geometry" />
        </mxCell>
        <mxCell id="rZi2FCJkjRqMSrU8-2pk-4" style="edgeStyle=orthogonalEdgeStyle;rounded=0;orthogonalLoop=1;jettySize=auto;html=1;entryX=0.5;entryY=0;entryDx=0;entryDy=0;fontSize=16;fontStyle=1;strokeWidth=2;align=left;" edge="1" parent="1" target="rZi2FCJkjRqMSrU8-2pk-10">
          <mxGeometry relative="1" as="geometry">
            <mxPoint x="220" y="360" as="sourcePoint" />
            <mxPoint x="220" y="420" as="targetPoint" />
          </mxGeometry>
        </mxCell>
        <mxCell id="rZi2FCJkjRqMSrU8-2pk-5" style="edgeStyle=orthogonalEdgeStyle;rounded=0;orthogonalLoop=1;jettySize=auto;html=1;exitX=0.5;exitY=1;exitDx=0;exitDy=0;strokeWidth=2;align=left;" edge="1" parent="1" source="rZi2FCJkjRqMSrU8-2pk-6" target="rZi2FCJkjRqMSrU8-2pk-9">
          <mxGeometry relative="1" as="geometry" />
        </mxCell>
        <mxCell id="rZi2FCJkjRqMSrU8-2pk-6" value="Scan QR ID of the WIB Boards and Visual Inspection" style="rounded=0;whiteSpace=wrap;html=1;fontSize=16;fontStyle=1;strokeWidth=2;align=left;" vertex="1" parent="1">
          <mxGeometry x="60" y="240" width="320" height="40" as="geometry" />
        </mxCell>
        <mxCell id="rZi2FCJkjRqMSrU8-2pk-7" style="edgeStyle=orthogonalEdgeStyle;rounded=0;orthogonalLoop=1;jettySize=auto;html=1;exitX=0.5;exitY=1;exitDx=0;exitDy=0;entryX=0.5;entryY=0;entryDx=0;entryDy=0;strokeWidth=2;" edge="1" parent="1" source="rZi2FCJkjRqMSrU8-2pk-8" target="rZi2FCJkjRqMSrU8-2pk-15">
          <mxGeometry relative="1" as="geometry" />
        </mxCell>
        <mxCell id="rZi2FCJkjRqMSrU8-2pk-8" value="Package Boards with ESD Bag" style="rounded=0;whiteSpace=wrap;html=1;fontSize=16;fontStyle=1;strokeWidth=2;align=left;" vertex="1" parent="1">
          <mxGeometry x="60" y="560" width="320" height="40" as="geometry" />
        </mxCell>
        <mxCell id="rZi2FCJkjRqMSrU8-2pk-9" value="Install WIB Board into the Test Setup" style="rounded=0;whiteSpace=wrap;html=1;fontSize=16;fontStyle=1;strokeWidth=2;align=left;" vertex="1" parent="1">
          <mxGeometry x="60" y="320" width="320" height="40" as="geometry" />
        </mxCell>
        <mxCell id="rZi2FCJkjRqMSrU8-2pk-10" value="LT Power Program" style="rounded=0;whiteSpace=wrap;html=1;fontSize=16;fontStyle=1;strokeWidth=2;align=left;" vertex="1" parent="1">
          <mxGeometry x="60" y="400" width="320" height="40" as="geometry" />
        </mxCell>
        <mxCell id="rZi2FCJkjRqMSrU8-2pk-11" style="edgeStyle=orthogonalEdgeStyle;rounded=0;orthogonalLoop=1;jettySize=auto;html=1;exitX=0.5;exitY=1;exitDx=0;exitDy=0;entryX=0.5;entryY=0;entryDx=0;entryDy=0;strokeWidth=2;" edge="1" parent="1" source="rZi2FCJkjRqMSrU8-2pk-12" target="rZi2FCJkjRqMSrU8-2pk-3">
          <mxGeometry relative="1" as="geometry" />
        </mxCell>
        <mxCell id="rZi2FCJkjRqMSrU8-2pk-12" value="Receive WIB and Take Pictures" style="rounded=0;whiteSpace=wrap;html=1;fontSize=16;fontStyle=1;strokeWidth=2;align=left;" vertex="1" parent="1">
          <mxGeometry x="60" y="80" width="320" height="40" as="geometry" />
        </mxCell>
        <mxCell id="rZi2FCJkjRqMSrU8-2pk-13" style="edgeStyle=orthogonalEdgeStyle;rounded=0;orthogonalLoop=1;jettySize=auto;html=1;exitX=0.5;exitY=1;exitDx=0;exitDy=0;entryX=0.5;entryY=0;entryDx=0;entryDy=0;strokeWidth=2;" edge="1" parent="1" source="rZi2FCJkjRqMSrU8-2pk-14" target="rZi2FCJkjRqMSrU8-2pk-8">
          <mxGeometry relative="1" as="geometry" />
        </mxCell>
        <mxCell id="rZi2FCJkjRqMSrU8-2pk-14" value="Assembly the Front Panel" style="rounded=0;whiteSpace=wrap;html=1;fontSize=16;fontStyle=1;strokeWidth=2;align=left;" vertex="1" parent="1">
          <mxGeometry x="60" y="480" width="320" height="40" as="geometry" />
        </mxCell>
        <mxCell id="rZi2FCJkjRqMSrU8-2pk-15" value="&lt;span style=&quot;background-color: rgb(102, 178, 255);&quot;&gt;General Traveler of the WIB board&lt;/span&gt;" style="rounded=0;whiteSpace=wrap;html=1;fontSize=16;fontStyle=1;strokeWidth=2;align=left;" vertex="1" parent="1">
          <mxGeometry x="60" y="640" width="320" height="40" as="geometry" />
        </mxCell>
        <mxCell id="pe2N6PO_nUNQrEvKNxLT-1" style="edgeStyle=orthogonalEdgeStyle;rounded=0;orthogonalLoop=1;jettySize=auto;html=1;exitX=0.5;exitY=1;exitDx=0;exitDy=0;entryX=0.5;entryY=0;entryDx=0;entryDy=0;strokeWidth=2;" edge="1" parent="1" source="pe2N6PO_nUNQrEvKNxLT-2" target="pe2N6PO_nUNQrEvKNxLT-13">
          <mxGeometry relative="1" as="geometry" />
        </mxCell>
        <mxCell id="pe2N6PO_nUNQrEvKNxLT-2" value="Install WIB into Test Setup" style="rounded=0;whiteSpace=wrap;html=1;fontSize=16;fontStyle=1;strokeWidth=2;align=left;" vertex="1" parent="1">
          <mxGeometry x="500" y="240" width="320" height="40" as="geometry" />
        </mxCell>
        <mxCell id="pe2N6PO_nUNQrEvKNxLT-3" style="edgeStyle=orthogonalEdgeStyle;rounded=0;orthogonalLoop=1;jettySize=auto;html=1;exitX=0.5;exitY=1;exitDx=0;exitDy=0;strokeWidth=2;align=left;" edge="1" parent="1" target="pe2N6PO_nUNQrEvKNxLT-6">
          <mxGeometry relative="1" as="geometry">
            <mxPoint x="660" y="520" as="sourcePoint" />
          </mxGeometry>
        </mxCell>
        <mxCell id="pe2N6PO_nUNQrEvKNxLT-4" value="&lt;div style=&quot;text-align: center;&quot;&gt;WIB QC one-click Script Detail&lt;/div&gt;&lt;div&gt;&lt;br&gt;&lt;/div&gt;&lt;div&gt;&lt;div&gt;&lt;i&gt;SD card boot Test&lt;/i&gt;&lt;/div&gt;&lt;div&gt;&lt;i&gt;&lt;br&gt;&lt;/i&gt;&lt;/div&gt;&lt;div&gt;&lt;span style=&quot;background-color: transparent; color: light-dark(rgb(0, 0, 0), rgb(255, 255, 255));&quot;&gt;&lt;i&gt;UART Connection&lt;/i&gt;&lt;/span&gt;&lt;/div&gt;&lt;div&gt;&lt;i&gt;&lt;br&gt;&lt;/i&gt;&lt;/div&gt;&lt;div&gt;&lt;i&gt;TCP/IP Connection&lt;/i&gt;&lt;/div&gt;&lt;div&gt;&lt;i&gt;&lt;br&gt;&lt;/i&gt;&lt;/div&gt;&lt;div&gt;&lt;i&gt;UDP Connection&lt;/i&gt;&lt;/div&gt;&lt;/div&gt;&lt;div&gt;&lt;br&gt;&lt;/div&gt;&lt;div&gt;&lt;span style=&quot;background-color: transparent; color: light-dark(rgb(0, 0, 0), rgb(255, 255, 255));&quot;&gt;WIB Power Rail Measurement&lt;/span&gt;&lt;/div&gt;&lt;div&gt;&lt;span style=&quot;background-color: transparent; color: light-dark(rgb(0, 0, 0), rgb(255, 255, 255));&quot;&gt;&lt;br&gt;&lt;/span&gt;&lt;/div&gt;&lt;div&gt;&lt;i&gt;WIB-FEMB Power Rail Measurement&lt;/i&gt;&lt;span style=&quot;background-color: transparent; color: light-dark(rgb(0, 0, 0), rgb(255, 255, 255));&quot;&gt;&lt;/span&gt;&lt;/div&gt;&lt;div&gt;&lt;br&gt;&lt;/div&gt;&lt;div&gt;Temperature Measurement&lt;/div&gt;&lt;div&gt;&lt;br&gt;&lt;/div&gt;&lt;div&gt;WIB-FEMB Communication&lt;/div&gt;&lt;div&gt;&lt;br&gt;&lt;/div&gt;&lt;div&gt;Calibration Path&lt;/div&gt;&lt;div&gt;&lt;br&gt;&lt;/div&gt;&lt;div&gt;Timing Test&lt;/div&gt;&lt;div&gt;&lt;br&gt;&lt;/div&gt;&lt;div&gt;IBERT&lt;/div&gt;&lt;div&gt;&lt;br&gt;&lt;/div&gt;&lt;div&gt;I2C Devices&lt;/div&gt;&lt;div&gt;&lt;br&gt;&lt;/div&gt;&lt;div&gt;PTB Interface Test Boards&lt;/div&gt;&lt;div&gt;&lt;br&gt;&lt;/div&gt;&lt;div&gt;&lt;font style=&quot;background-color: rgb(102, 178, 255); color: rgb(0, 0, 0);&quot;&gt;Generate Reception Checkout Report&lt;/font&gt;&lt;/div&gt;" style="rounded=0;whiteSpace=wrap;html=1;fontSize=16;fontStyle=1;strokeWidth=3;align=left;verticalAlign=top;strokeColor=#EA6B66;" vertex="1" parent="1">
          <mxGeometry x="900" y="80" width="320" height="600" as="geometry" />
        </mxCell>
        <mxCell id="pe2N6PO_nUNQrEvKNxLT-5" style="edgeStyle=orthogonalEdgeStyle;rounded=0;orthogonalLoop=1;jettySize=auto;html=1;exitX=0.5;exitY=1;exitDx=0;exitDy=0;entryX=0.5;entryY=0;entryDx=0;entryDy=0;fontSize=11;strokeWidth=2;align=left;" edge="1" parent="1" source="pe2N6PO_nUNQrEvKNxLT-6" target="pe2N6PO_nUNQrEvKNxLT-7">
          <mxGeometry relative="1" as="geometry" />
        </mxCell>
        <mxCell id="pe2N6PO_nUNQrEvKNxLT-6" value="Remove Test Widgets" style="rounded=0;whiteSpace=wrap;html=1;fontSize=16;fontStyle=1;strokeWidth=2;align=left;" vertex="1" parent="1">
          <mxGeometry x="500" y="560" width="320" height="40" as="geometry" />
        </mxCell>
        <mxCell id="pe2N6PO_nUNQrEvKNxLT-7" value="Package the WIB into Foam Box" style="rounded=0;whiteSpace=wrap;html=1;fontSize=16;fontStyle=1;strokeWidth=2;align=left;" vertex="1" parent="1">
          <mxGeometry x="500" y="640" width="320" height="40" as="geometry" />
        </mxCell>
        <mxCell id="pe2N6PO_nUNQrEvKNxLT-8" style="edgeStyle=orthogonalEdgeStyle;rounded=0;orthogonalLoop=1;jettySize=auto;html=1;exitX=0.5;exitY=1;exitDx=0;exitDy=0;entryX=0.5;entryY=0;entryDx=0;entryDy=0;strokeWidth=2;align=left;" edge="1" parent="1" source="pe2N6PO_nUNQrEvKNxLT-9" target="pe2N6PO_nUNQrEvKNxLT-11">
          <mxGeometry relative="1" as="geometry" />
        </mxCell>
        <mxCell id="pe2N6PO_nUNQrEvKNxLT-9" value="Pick up WIB with ESD straps" style="rounded=0;whiteSpace=wrap;html=1;fontSize=16;fontStyle=1;strokeWidth=2;align=left;" vertex="1" parent="1">
          <mxGeometry x="500" y="80" width="320" height="40" as="geometry" />
        </mxCell>
        <mxCell id="pe2N6PO_nUNQrEvKNxLT-10" style="edgeStyle=orthogonalEdgeStyle;rounded=0;orthogonalLoop=1;jettySize=auto;html=1;exitX=0.5;exitY=1;exitDx=0;exitDy=0;entryX=0.5;entryY=0;entryDx=0;entryDy=0;strokeWidth=2;align=left;" edge="1" parent="1" source="pe2N6PO_nUNQrEvKNxLT-11" target="pe2N6PO_nUNQrEvKNxLT-2">
          <mxGeometry relative="1" as="geometry" />
        </mxCell>
        <mxCell id="pe2N6PO_nUNQrEvKNxLT-11" value="Scan QR ID of the WIB Boards" style="rounded=0;whiteSpace=wrap;html=1;fontSize=16;fontStyle=1;strokeWidth=2;align=left;" vertex="1" parent="1">
          <mxGeometry x="500" y="160" width="320" height="40" as="geometry" />
        </mxCell>
        <mxCell id="pe2N6PO_nUNQrEvKNxLT-12" style="edgeStyle=orthogonalEdgeStyle;rounded=0;orthogonalLoop=1;jettySize=auto;html=1;exitX=0.5;exitY=1;exitDx=0;exitDy=0;entryX=0.5;entryY=0;entryDx=0;entryDy=0;strokeWidth=2;align=left;" edge="1" parent="1" source="pe2N6PO_nUNQrEvKNxLT-13">
          <mxGeometry relative="1" as="geometry">
            <mxPoint x="660" y="400" as="targetPoint" />
          </mxGeometry>
        </mxCell>
        <mxCell id="pe2N6PO_nUNQrEvKNxLT-13" value="Insert Require Components" style="rounded=0;whiteSpace=wrap;html=1;fontSize=16;fontStyle=1;strokeWidth=2;align=left;" vertex="1" parent="1">
          <mxGeometry x="500" y="320" width="320" height="40" as="geometry" />
        </mxCell>
        <mxCell id="pe2N6PO_nUNQrEvKNxLT-14" style="edgeStyle=orthogonalEdgeStyle;rounded=0;orthogonalLoop=1;jettySize=auto;html=1;exitX=0.5;exitY=1;exitDx=0;exitDy=0;entryX=0.5;entryY=0;entryDx=0;entryDy=0;strokeWidth=2;" edge="1" parent="1" source="pe2N6PO_nUNQrEvKNxLT-15" target="pe2N6PO_nUNQrEvKNxLT-17">
          <mxGeometry relative="1" as="geometry" />
        </mxCell>
        <mxCell id="pe2N6PO_nUNQrEvKNxLT-15" value="Insert Test Widgets" style="rounded=0;whiteSpace=wrap;html=1;fontSize=16;fontStyle=1;strokeWidth=2;align=left;" vertex="1" parent="1">
          <mxGeometry x="500" y="400" width="320" height="40" as="geometry" />
        </mxCell>
        <mxCell id="pe2N6PO_nUNQrEvKNxLT-17" value="&lt;span style=&quot;text-align: center;&quot;&gt;Implemented WIB QC Script&lt;/span&gt;" style="rounded=0;whiteSpace=wrap;html=1;fontSize=16;fontStyle=1;strokeWidth=2;align=left;fillColor=#EA6B66;strokeColor=#EA6B66;" vertex="1" parent="1">
          <mxGeometry x="500" y="480" width="320" height="40" as="geometry" />
        </mxCell>
        <mxCell id="pe2N6PO_nUNQrEvKNxLT-20" style="edgeStyle=orthogonalEdgeStyle;rounded=0;orthogonalLoop=1;jettySize=auto;html=1;exitX=0.5;exitY=1;exitDx=0;exitDy=0;" edge="1" parent="1" source="pe2N6PO_nUNQrEvKNxLT-18" target="pe2N6PO_nUNQrEvKNxLT-18">
          <mxGeometry relative="1" as="geometry" />
        </mxCell>
        <mxCell id="jZaTBG413mGB9T1UnAkj-1" style="edgeStyle=none;rounded=0;orthogonalLoop=1;jettySize=auto;html=1;exitX=1;exitY=0.5;exitDx=0;exitDy=0;entryX=-0.001;entryY=0.7;entryDx=0;entryDy=0;entryPerimeter=0;endArrow=none;startFill=0;strokeWidth=3;strokeColor=#EA6B66;" edge="1" parent="1" source="pe2N6PO_nUNQrEvKNxLT-17" target="pe2N6PO_nUNQrEvKNxLT-4">
          <mxGeometry relative="1" as="geometry" />
        </mxCell>
        <mxCell id="jZaTBG413mGB9T1UnAkj-3" value="&lt;span style=&quot;background-color: rgb(102, 178, 255);&quot;&gt;Report updated to HWDB&lt;/span&gt;" style="rounded=0;whiteSpace=wrap;html=1;fontSize=16;fontStyle=1;strokeWidth=2;align=center;fillColor=#f5f5f5;fontColor=#333333;strokeColor=#666666;" vertex="1" parent="1">
          <mxGeometry x="40" y="780" width="540" height="40" as="geometry" />
        </mxCell>
        <mxCell id="jZaTBG413mGB9T1UnAkj-4" value="&lt;span&gt;Production Sent to FD1 and FD2&lt;/span&gt;" style="rounded=0;whiteSpace=wrap;html=1;fontSize=16;fontStyle=1;strokeWidth=2;align=center;fillColor=#f5f5f5;fontColor=#333333;strokeColor=#666666;" vertex="1" parent="1">
          <mxGeometry x="700" y="780" width="540" height="40" as="geometry" />
        </mxCell>
      </root>
    </mxGraphModel>
  </diagram>
</mxfile>
